<svg xmlns="http://www.w3.org/2000/svg" viewBox="0 0 1700 1024">
  <!-- Mark — preserved at its original 1024 coordinates, just on a wider canvas -->
  <g fill="#5A3D1F">
    <path d="M464.038605,585.000000 C464.223724,558.510315 464.782074,532.516418 464.496246,506.531891 C464.111633,471.565216 464.717987,436.605377 464.562836,401.642944 C464.475647,381.991302 464.218323,362.340485 464.108429,342.688873 C464.072723,336.296661 464.482483,335.978088 470.947388,335.948608 C476.279510,335.924316 481.617340,336.092102 486.942261,335.894531 C491.010620,335.743591 492.479034,337.274689 492.438293,341.433136 C492.265259,359.094543 492.371124,376.758667 492.373871,394.421814 C492.379944,433.913910 492.377472,473.405975 492.414551,512.898071 C492.416382,514.836670 491.886902,516.917419 494.033325,519.589478 C533.812012,497.293915 573.742615,474.913208 613.414429,452.677551 C615.914185,454.772064 615.290894,456.734100 615.291992,458.441986 C615.342407,533.760193 615.315613,609.078552 615.452942,684.396545 C615.461365,688.999207 614.062927,690.625854 609.481628,690.355591 C604.001526,690.032227 598.479004,690.073425 592.992371,690.330566 C588.829956,690.525757 587.523438,688.923889 587.560608,684.835571 C587.719543,667.340576 587.608948,649.843262 587.608704,632.346741 C587.608093,590.355103 587.614197,548.363525 587.617615,506.371887 C587.617737,504.408966 587.617615,502.446014 587.617615,500.593536 C585.251160,499.851593 583.964844,501.174072 582.591370,501.950378 C554.169250,518.014893 525.809082,534.189819 497.317200,550.129272 C493.399139,552.321167 492.214172,554.922058 492.230896,559.269836 C492.389862,600.594299 492.333252,641.919617 492.334412,683.244690 C492.334625,690.288147 492.325439,690.294067 485.119385,690.306274 C480.453674,690.314148 475.787903,690.308167 471.122192,690.296753 C464.080475,690.279602 464.069763,690.275269 464.062225,682.978027 C464.043274,664.648438 464.029602,646.318787 464.024139,627.989197 C464.019928,613.826111 464.031372,599.663086 464.038605,585.000000 Z"/>
    <path d="M439.035736,511.000000 C439.049774,568.485352 439.068817,625.470642 439.070190,682.455994 C439.070374,690.306091 439.029816,690.307922 431.005432,690.313354 C426.173340,690.316589 421.320496,690.033997 416.515015,690.391113 C411.743164,690.745850 410.251099,688.739319 410.671570,684.304749 C410.906372,681.828369 410.694580,679.310181 410.694489,676.810852 C410.690582,565.839172 410.687714,454.867554 410.685211,343.895905 C410.685028,335.921875 410.686615,335.925049 418.628967,335.921265 C423.127808,335.919128 427.626678,335.892212 432.125488,335.898438 C438.668152,335.907501 439.007355,336.231567 439.024689,342.543610 C439.045746,350.208221 439.052826,357.872894 439.052246,365.537537 C439.048645,413.858368 439.041321,462.179169 439.035736,511.000000 Z"/>
    <path d="M562.181519,627.000000 C562.151001,646.330811 562.012939,665.162476 562.165833,683.991821 C562.203430,688.620300 560.936218,690.726135 555.952271,690.379272 C550.645142,690.009888 545.272766,690.003418 539.965942,690.372375 C534.951416,690.720947 533.770264,688.557922 533.788513,683.958801 C533.925049,649.630554 533.864075,615.301575 533.870667,580.972778 C533.871887,574.473694 533.892883,567.974670 533.915955,561.475586 C533.922485,559.626892 533.862610,557.669189 535.791016,556.632385 C543.973633,552.233337 552.186096,547.889893 560.387695,543.526123 C560.985535,543.708801 561.583313,543.891541 562.181152,544.074280 C562.181152,571.549500 562.181152,599.024780 562.181519,627.000000 Z"/>
  </g>
  <!-- "Hona" wordmark — Inter Bold, sized so cap-height matches the mark height,
       letter-spacing slightly tightened for display use. -->
  <text x="700" y="675"
        font-family="Inter, -apple-system, BlinkMacSystemFont, system-ui, sans-serif"
        font-weight="700"
        font-size="460"
        letter-spacing="-10"
        fill="#5A3D1F">Hona</text>
</svg>
